<svg width="24" height="24" viewBox="0 0 24 24" fill="none" xmlns="http://www.w3.org/2000/svg">
<path d="M9.9605 14.863L10.8465 17.962C11.1785 19.122 12.8225 19.122 13.1545 17.962L14.0395 14.863C14.0955 14.667 14.2006 14.4884 14.3448 14.3443C14.4889 14.2001 14.6675 14.095 14.8635 14.039L17.9625 13.154C19.1225 12.822 19.1225 11.178 17.9625 10.846L14.8635 9.96101C14.6675 9.90498 14.4889 9.79992 14.3448 9.65575C14.2006 9.51158 14.0955 9.33305 14.0395 9.13701L13.1545 6.03801C12.8225 4.87801 11.1785 4.87801 10.8465 6.03801L9.9615 9.13701C9.90547 9.33305 9.80041 9.51158 9.65624 9.65575C9.51207 9.79992 9.33354 9.90498 9.1375 9.96101L6.0385 10.846C4.8785 11.178 4.8785 12.822 6.0385 13.154L9.1375 14.039C9.33354 14.095 9.51207 14.2001 9.65624 14.3443C9.80041 14.4884 9.90547 14.667 9.9615 14.863M4.4305 19.716L4.8065 21.224C4.8565 21.426 5.1445 21.426 5.1945 21.224L5.5715 19.716C5.58033 19.681 5.59847 19.649 5.624 19.6235C5.64953 19.598 5.68149 19.5798 5.7165 19.571L7.2245 19.194C7.4265 19.144 7.4265 18.857 7.2245 18.806L5.7165 18.429C5.68149 18.4202 5.64953 18.402 5.624 18.3765C5.59847 18.351 5.58033 18.319 5.5715 18.284L5.1945 16.776C5.1445 16.574 4.8565 16.574 4.8065 16.776L4.4295 18.284C4.42067 18.319 4.40253 18.351 4.377 18.3765C4.35147 18.402 4.31951 18.4202 4.2845 18.429L2.7765 18.806C2.5745 18.856 2.5745 19.143 2.7765 19.194L4.2845 19.571C4.31951 19.5798 4.35147 19.598 4.377 19.6235C4.40253 19.649 4.42167 19.681 4.4305 19.716ZM18.4305 5.71601L18.8065 7.22401C18.8565 7.42601 19.1435 7.42601 19.1945 7.22401L19.5715 5.71601C19.5803 5.68101 19.5985 5.64904 19.624 5.62351C19.6495 5.59799 19.6815 5.57984 19.7165 5.57101L21.2245 5.19401C21.4265 5.14401 21.4265 4.85601 21.2245 4.80601L19.7165 4.42901C19.6815 4.42018 19.6495 4.40204 19.624 4.37651C19.5985 4.35098 19.5803 4.31902 19.5715 4.28401L19.1945 2.77601C19.1445 2.57401 18.8575 2.57401 18.8065 2.77601L18.4295 4.28401C18.4207 4.31902 18.4025 4.35098 18.377 4.37651C18.3515 4.40204 18.3195 4.42018 18.2845 4.42901L16.7765 4.80601C16.5745 4.85601 16.5745 5.14401 16.7765 5.19401L18.2845 5.57101C18.3195 5.57984 18.3515 5.59799 18.377 5.62351C18.4025 5.64904 18.4217 5.68101 18.4305 5.71601Z" stroke="#26525B" stroke-opacity="0.4" stroke-width="1.5" stroke-miterlimit="10" stroke-linecap="round" stroke-linejoin="round"/>
</svg>
