<svg width="24" height="35" viewBox="0 0 24 35" fill="none" xmlns="http://www.w3.org/2000/svg">
<path d="M9.9605 14.8625L10.8465 17.9615C11.1785 19.1215 12.8225 19.1215 13.1545 17.9615L14.0395 14.8625C14.0955 14.6665 14.2006 14.488 14.3448 14.3438C14.4889 14.1996 14.6675 14.0946 14.8635 14.0385L17.9625 13.1535C19.1225 12.8215 19.1225 11.1775 17.9625 10.8455L14.8635 9.96052C14.6675 9.90449 14.4889 9.79943 14.3448 9.65526C14.2006 9.51109 14.0955 9.33256 14.0395 9.13652L13.1545 6.03752C12.8225 4.87752 11.1785 4.87752 10.8465 6.03752L9.9615 9.13652C9.90547 9.33256 9.80041 9.51109 9.65624 9.65526C9.51207 9.79943 9.33354 9.90449 9.1375 9.96052L6.0385 10.8455C4.8785 11.1775 4.8785 12.8215 6.0385 13.1535L9.1375 14.0385C9.33354 14.0946 9.51207 14.1996 9.65624 14.3438C9.80041 14.488 9.90547 14.6665 9.9615 14.8625M4.4305 19.7155L4.8065 21.2235C4.8565 21.4255 5.1445 21.4255 5.1945 21.2235L5.5715 19.7155C5.58033 19.6805 5.59847 19.6486 5.624 19.623C5.64953 19.5975 5.68149 19.5794 5.7165 19.5705L7.2245 19.1935C7.4265 19.1435 7.4265 18.8565 7.2245 18.8055L5.7165 18.4285C5.68149 18.4197 5.64953 18.4015 5.624 18.376C5.59847 18.3505 5.58033 18.3185 5.5715 18.2835L5.1945 16.7755C5.1445 16.5735 4.8565 16.5735 4.8065 16.7755L4.4295 18.2835C4.42067 18.3185 4.40253 18.3505 4.377 18.376C4.35147 18.4015 4.31951 18.4197 4.2845 18.4285L2.7765 18.8055C2.5745 18.8555 2.5745 19.1425 2.7765 19.1935L4.2845 19.5705C4.31951 19.5794 4.35147 19.5975 4.377 19.623C4.40253 19.6486 4.42167 19.6805 4.4305 19.7155ZM18.4305 5.71552L18.8065 7.22352C18.8565 7.42552 19.1435 7.42552 19.1945 7.22352L19.5715 5.71552C19.5803 5.68052 19.5985 5.64855 19.624 5.62303C19.6495 5.5975 19.6815 5.57936 19.7165 5.57052L21.2245 5.19352C21.4265 5.14352 21.4265 4.85552 21.2245 4.80552L19.7165 4.42852C19.6815 4.41969 19.6495 4.40155 19.624 4.37602C19.5985 4.35049 19.5803 4.31853 19.5715 4.28352L19.1945 2.77552C19.1445 2.57352 18.8575 2.57352 18.8065 2.77552L18.4295 4.28352C18.4207 4.31853 18.4025 4.35049 18.377 4.37602C18.3515 4.40155 18.3195 4.41969 18.2845 4.42852L16.7765 4.80552C16.5745 4.85552 16.5745 5.14352 16.7765 5.19352L18.2845 5.57052C18.3195 5.57936 18.3515 5.5975 18.377 5.62303C18.4025 5.64855 18.4217 5.68052 18.4305 5.71552Z" fill="#14908E"/>
<path d="M9.9605 14.8625L10.8465 17.9615C11.1785 19.1215 12.8225 19.1215 13.1545 17.9615L14.0395 14.8625C14.0955 14.6665 14.2006 14.488 14.3448 14.3438C14.4889 14.1996 14.6675 14.0946 14.8635 14.0385L17.9625 13.1535C19.1225 12.8215 19.1225 11.1775 17.9625 10.8455L14.8635 9.96052C14.6675 9.90449 14.4889 9.79943 14.3448 9.65526C14.2006 9.51109 14.0955 9.33256 14.0395 9.13652L13.1545 6.03752C12.8225 4.87752 11.1785 4.87752 10.8465 6.03752L9.9615 9.13652C9.90547 9.33256 9.80041 9.51109 9.65624 9.65526C9.51207 9.79943 9.33354 9.90449 9.1375 9.96052L6.0385 10.8455C4.8785 11.1775 4.8785 12.8215 6.0385 13.1535L9.1375 14.0385C9.33354 14.0946 9.51207 14.1996 9.65624 14.3438C9.80041 14.488 9.90547 14.6665 9.9615 14.8625M4.4305 19.7155L4.8065 21.2235C4.8565 21.4255 5.1445 21.4255 5.1945 21.2235L5.5715 19.7155C5.58033 19.6805 5.59847 19.6486 5.624 19.623C5.64953 19.5975 5.68149 19.5794 5.7165 19.5705L7.2245 19.1935C7.4265 19.1435 7.4265 18.8565 7.2245 18.8055L5.7165 18.4285C5.68149 18.4197 5.64953 18.4015 5.624 18.376C5.59847 18.3505 5.58033 18.3185 5.5715 18.2835L5.1945 16.7755C5.1445 16.5735 4.8565 16.5735 4.8065 16.7755L4.4295 18.2835C4.42067 18.3185 4.40253 18.3505 4.377 18.376C4.35147 18.4015 4.31951 18.4197 4.2845 18.4285L2.7765 18.8055C2.5745 18.8555 2.5745 19.1425 2.7765 19.1935L4.2845 19.5705C4.31951 19.5794 4.35147 19.5975 4.377 19.623C4.40253 19.6486 4.42167 19.6805 4.4305 19.7155ZM18.4305 5.71552L18.8065 7.22352C18.8565 7.42552 19.1435 7.42552 19.1945 7.22352L19.5715 5.71552C19.5803 5.68052 19.5985 5.64855 19.624 5.62303C19.6495 5.5975 19.6815 5.57935 19.7165 5.57052L21.2245 5.19352C21.4265 5.14352 21.4265 4.85552 21.2245 4.80552L19.7165 4.42852C19.6815 4.41969 19.6495 4.40155 19.624 4.37602C19.5985 4.35049 19.5803 4.31853 19.5715 4.28352L19.1945 2.77552C19.1445 2.57352 18.8575 2.57352 18.8065 2.77552L18.4295 4.28352C18.4207 4.31853 18.4025 4.35049 18.377 4.37602C18.3515 4.40155 18.3195 4.41969 18.2845 4.42852L16.7765 4.80552C16.5745 4.85552 16.5745 5.14352 16.7765 5.19352L18.2845 5.57052C18.3195 5.57935 18.3515 5.5975 18.377 5.62303C18.4025 5.64855 18.4217 5.68052 18.4305 5.71552Z" stroke="#14908E" stroke-width="1.5" stroke-miterlimit="10" stroke-linecap="round" stroke-linejoin="round"/>
<rect x="7" y="30" width="10" height="5" rx="2.5" fill="#14908E"/>
</svg>
