<svg width="32" height="32" viewBox="0 0 32 32" fill="none" xmlns="http://www.w3.org/2000/svg">
<rect x="9.33398" y="10.6665" width="17.3333" height="14.6667" fill="#FFFDFC"/>
<path fill-rule="evenodd" clip-rule="evenodd" d="M13.0367 28.0001H18.962C23.1233 28.0001 25.2047 28.0001 26.6993 27.0201C27.3444 26.5976 27.8999 26.0521 28.334 25.4147C29.3327 23.9481 29.3327 21.9041 29.3327 17.8187C29.3327 13.7334 29.3327 11.6894 28.334 10.2227C27.8999 9.58539 27.3444 9.03987 26.6993 8.6174C25.7393 7.98673 24.5367 7.7614 22.6953 7.6814C21.8167 7.6814 21.0607 7.02806 20.8887 6.1814C20.7572 5.56122 20.4157 5.00544 19.9218 4.608C19.4279 4.21055 18.812 3.99581 18.178 4.00006H13.8207C12.5033 4.00006 11.3687 4.9134 11.11 6.1814C10.938 7.02806 10.182 7.6814 9.30335 7.6814C7.46335 7.7614 6.26068 7.98806 5.29935 8.6174C4.65473 9.04001 4.09971 9.58551 3.66602 10.2227C2.66602 11.6894 2.66602 13.7321 2.66602 17.8187C2.66602 21.9054 2.66602 23.9467 3.66468 25.4147C4.09668 26.0494 4.65135 26.5947 5.29935 27.0201C6.79402 28.0001 8.87535 28.0001 13.0367 28.0001ZM15.9993 12.3641C12.9313 12.3641 10.4433 14.8054 10.4433 17.8174C10.4433 20.8294 12.9327 23.2747 15.9993 23.2747C19.066 23.2747 21.5553 20.8321 21.5553 17.8201C21.5553 14.8081 19.066 12.3641 15.9993 12.3641ZM15.9993 14.5454C14.1593 14.5454 12.666 16.0107 12.666 17.8187C12.666 19.6254 14.1593 21.0907 15.9993 21.0907C17.8393 21.0907 19.3327 19.6254 19.3327 17.8187C19.3327 16.0121 17.8393 14.5454 15.9993 14.5454ZM22.2953 13.4547C22.2953 12.8521 22.7927 12.3641 23.4073 12.3641H24.8873C25.5007 12.3641 25.9993 12.8521 25.9993 13.4547C25.9965 13.7466 25.878 14.0254 25.6697 14.2299C25.4615 14.4344 25.1805 14.5479 24.8887 14.5454H23.4073C23.2627 14.5468 23.1192 14.5197 22.9851 14.4657C22.8509 14.4116 22.7287 14.3317 22.6254 14.2304C22.5222 14.1291 22.4399 14.0085 22.3832 13.8754C22.3266 13.7423 22.2967 13.5994 22.2953 13.4547Z" fill="#F27B50"/>
</svg>
