<svg width="24" height="35" viewBox="0 0 24 35" fill="none" xmlns="http://www.w3.org/2000/svg">
<path d="M8.75 6.25C8.75 5.38805 9.09241 4.5614 9.7019 3.9519C10.3114 3.34241 11.138 3 12 3C12.862 3 13.6886 3.34241 14.2981 3.9519C14.9076 4.5614 15.25 5.38805 15.25 6.25C15.25 7.11195 14.9076 7.9386 14.2981 8.5481C13.6886 9.15759 12.862 9.5 12 9.5C11.138 9.5 10.3114 9.15759 9.7019 8.5481C9.09241 7.9386 8.75 7.11195 8.75 6.25ZM5 5C4.20435 5 3.44129 5.31607 2.87868 5.87868C2.31607 6.44129 2 7.20435 2 8C2 8.79565 2.31607 9.55871 2.87868 10.1213C3.44129 10.6839 4.20435 11 5 11C5.79565 11 6.55871 10.6839 7.12132 10.1213C7.68393 9.55871 8 8.79565 8 8C8 7.20435 7.68393 6.44129 7.12132 5.87868C6.55871 5.31607 5.79565 5 5 5ZM19 5C18.2044 5 17.4413 5.31607 16.8787 5.87868C16.3161 6.44129 16 7.20435 16 8C16 8.79565 16.3161 9.55871 16.8787 10.1213C17.4413 10.6839 18.2044 11 19 11C19.7956 11 20.5587 10.6839 21.1213 10.1213C21.6839 9.55871 22 8.79565 22 8C22 7.20435 21.6839 6.44129 21.1213 5.87868C20.5587 5.31607 19.7956 5 19 5ZM9.25 11C8.78587 11 8.34075 11.1844 8.01256 11.5126C7.68437 11.8408 7.5 12.2859 7.5 12.75V16.5C7.5 17.6935 7.97411 18.8381 8.81802 19.682C9.66193 20.5259 10.8065 21 12 21H12.022C11.4791 20.1497 11.1414 19.1847 11.0358 18.1814C10.9301 17.1781 11.0593 16.164 11.4132 15.2192C11.7671 14.2745 12.3359 13.425 13.0747 12.738C13.8135 12.051 14.702 11.5454 15.67 11.261C15.3937 11.0898 15.075 10.9994 14.75 11H9.25ZM6.61 11.978C6.53733 12.224 6.50067 12.4813 6.5 12.75V16.5C6.49918 17.3188 6.6815 18.1273 7.03361 18.8665C7.38573 19.6057 7.89871 20.2567 8.535 20.772C7.95307 20.9649 7.33785 21.037 6.72709 20.9836C6.11633 20.9302 5.52292 20.7526 4.98326 20.4617C4.44361 20.1707 3.9691 19.7726 3.58885 19.2917C3.2086 18.8108 2.93063 18.2572 2.772 17.665L2.06 15.009C2.00041 14.787 1.98514 14.5554 2.01505 14.3275C2.04497 14.0996 2.11949 13.8799 2.23437 13.6808C2.34924 13.4817 2.50221 13.3071 2.68453 13.1672C2.86686 13.0272 3.07498 12.9245 3.297 12.865L6.61 11.978ZM23 17.5C23 16.0413 22.4205 14.6424 21.3891 13.6109C20.3576 12.5795 18.9587 12 17.5 12C16.0413 12 14.6424 12.5795 13.6109 13.6109C12.5795 14.6424 12 16.0413 12 17.5C12 18.9587 12.5795 20.3576 13.6109 21.3891C14.6424 22.4205 16.0413 23 17.5 23C18.9587 23 20.3576 22.4205 21.3891 21.3891C22.4205 20.3576 23 18.9587 23 17.5ZM18 18L18.001 20.503C18.001 20.6356 17.9483 20.7628 17.8546 20.8566C17.7608 20.9503 17.6336 21.003 17.501 21.003C17.3684 21.003 17.2412 20.9503 17.1474 20.8566C17.0537 20.7628 17.001 20.6356 17.001 20.503V18H14.496C14.3634 18 14.2362 17.9473 14.1424 17.8536C14.0487 17.7598 13.996 17.6326 13.996 17.5C13.996 17.3674 14.0487 17.2402 14.1424 17.1464C14.2362 17.0527 14.3634 17 14.496 17H17V14.5C17 14.3674 17.0527 14.2402 17.1464 14.1464C17.2402 14.0527 17.3674 14 17.5 14C17.6326 14 17.7598 14.0527 17.8536 14.1464C17.9473 14.2402 18 14.3674 18 14.5V17H20.497C20.6296 17 20.7568 17.0527 20.8506 17.1464C20.9443 17.2402 20.997 17.3674 20.997 17.5C20.997 17.6326 20.9443 17.7598 20.8506 17.8536C20.7568 17.9473 20.6296 18 20.497 18H18Z" fill="#14908E"/>
<rect x="7" y="30" width="10" height="5" rx="2.5" fill="#14908E"/>
</svg>
