<svg width="24" height="24" viewBox="0 0 24 24" fill="none" xmlns="http://www.w3.org/2000/svg">
<path d="M9.8577 5.99986C9.8577 5.43154 10.0835 4.8865 10.4853 4.48463C10.8872 4.08277 11.4322 3.857 12.0006 3.857C12.5689 3.857 13.1139 4.08277 13.5158 4.48463C13.9177 4.8865 14.1434 5.43154 14.1434 5.99986C14.1434 6.56818 13.9177 7.11323 13.5158 7.51509C13.1139 7.91695 12.5689 8.14272 12.0006 8.14272C11.4322 8.14272 10.8872 7.91695 10.4853 7.51509C10.0835 7.11323 9.8577 6.56818 9.8577 5.99986ZM12.0006 2.57129C11.0912 2.57129 10.2192 2.93251 9.57619 3.57549C8.93321 4.21848 8.57199 5.09055 8.57199 5.99986C8.57199 6.90917 8.93321 7.78124 9.57619 8.42423C10.2192 9.06721 11.0912 9.42843 12.0006 9.42843C12.9099 9.42843 13.7819 9.06721 14.4249 8.42423C15.0679 7.78124 15.4291 6.90917 15.4291 5.99986C15.4291 5.09055 15.0679 4.21848 14.4249 3.57549C13.7819 2.93251 12.9099 2.57129 12.0006 2.57129ZM4.71484 6.42843C4.26019 6.42843 3.82415 6.60904 3.50266 6.93053C3.18117 7.25203 3.00056 7.68806 3.00056 8.14272C3.00056 8.59737 3.18117 9.03341 3.50266 9.3549C3.82415 9.67639 4.26019 9.857 4.71484 9.857C5.1695 9.857 5.60554 9.67639 5.92703 9.3549C6.24852 9.03341 6.42913 8.59737 6.42913 8.14272C6.42913 7.68806 6.24852 7.25203 5.92703 6.93053C5.60554 6.60904 5.1695 6.42843 4.71484 6.42843ZM1.71484 8.14272C1.71484 7.74875 1.79244 7.35864 1.94321 6.99467C2.09397 6.63069 2.31495 6.29997 2.59352 6.0214C2.8721 5.74282 3.20282 5.52184 3.56679 5.37108C3.93077 5.22031 4.32088 5.14272 4.71484 5.14272C5.10881 5.14272 5.49892 5.22031 5.86289 5.37108C6.22687 5.52184 6.55759 5.74282 6.83616 6.0214C7.11474 6.29997 7.33572 6.63069 7.48648 6.99467C7.63725 7.35864 7.71484 7.74875 7.71484 8.14272C7.71484 8.93837 7.39877 9.70143 6.83616 10.264C6.27355 10.8266 5.51049 11.1427 4.71484 11.1427C3.91919 11.1427 3.15613 10.8266 2.59352 10.264C2.03091 9.70143 1.71484 8.93837 1.71484 8.14272ZM19.2863 6.42843C18.8316 6.42843 18.3956 6.60904 18.0741 6.93053C17.7526 7.25203 17.572 7.68806 17.572 8.14272C17.572 8.59737 17.7526 9.03341 18.0741 9.3549C18.3956 9.67639 18.8316 9.857 19.2863 9.857C19.7409 9.857 20.177 9.67639 20.4985 9.3549C20.8199 9.03341 21.0006 8.59737 21.0006 8.14272C21.0006 7.68806 20.8199 7.25203 20.4985 6.93053C20.177 6.60904 19.7409 6.42843 19.2863 6.42843ZM16.2863 8.14272C16.2863 7.34707 16.6023 6.58401 17.165 6.0214C17.7276 5.45879 18.4906 5.14272 19.2863 5.14272C20.0819 5.14272 20.845 5.45879 21.4076 6.0214C21.9702 6.58401 22.2863 7.34707 22.2863 8.14272C22.2863 8.93837 21.9702 9.70143 21.4076 10.264C20.845 10.8266 20.0819 11.1427 19.2863 11.1427C18.4906 11.1427 17.7276 10.8266 17.165 10.264C16.6023 9.70143 16.2863 8.93837 16.2863 8.14272ZM7.71484 12.6427C7.71484 11.8147 8.38684 11.1427 9.21484 11.1427H14.7863C15.1163 11.1427 15.4206 11.249 15.6683 11.429C14.9644 11.6476 14.3033 11.9857 13.714 12.4284H9.21484C9.15801 12.4284 9.10351 12.451 9.06332 12.4912C9.02313 12.5314 9.00056 12.5859 9.00056 12.6427V17.1427C9.0003 17.8814 9.27258 18.5942 9.76525 19.1446C10.2579 19.695 10.9363 20.0443 11.6706 20.1256C11.8694 20.5833 12.1197 21.0136 12.4137 21.4087C12.2777 21.4219 12.14 21.4284 12.0006 21.4284C10.8639 21.4284 9.77383 20.9769 8.9701 20.1732C8.16637 19.3694 7.71484 18.2794 7.71484 17.1427V12.6427ZM6.8577 12.6444L2.82656 13.7244C2.63626 13.7755 2.45787 13.8635 2.30159 13.9834C2.14531 14.1034 2.01419 14.253 1.91573 14.4236C1.81727 14.5943 1.75339 14.7827 1.72775 14.978C1.7021 15.1734 1.71519 15.3719 1.76627 15.5621L2.48713 18.2527C2.65201 18.8686 2.95221 19.4399 3.36587 19.925C3.77952 20.4102 4.29621 20.7969 4.87827 21.0571C5.46032 21.3172 6.09309 21.4442 6.73046 21.4289C7.36782 21.4135 7.99373 21.2561 8.56256 20.9681C8.22845 20.668 7.93509 20.3254 7.68999 19.949C7.59684 19.9844 7.50142 20.0153 7.4037 20.0416C7.02313 20.1436 6.62619 20.1696 6.23555 20.1182C5.84491 20.0668 5.46823 19.939 5.127 19.742C4.78578 19.545 4.4867 19.2827 4.24685 18.9701C4.00701 18.6575 3.83108 18.3007 3.72913 17.9201L3.00827 15.2287C2.99362 15.1738 3.00137 15.1153 3.02982 15.0662C3.05827 15.017 3.10509 14.9811 3.15999 14.9664L6.8577 13.9756V12.6444ZM23.1434 17.5713C23.1434 19.0489 22.5564 20.466 21.5116 21.5109C20.4667 22.5557 19.0496 23.1427 17.572 23.1427C16.0944 23.1427 14.6772 22.5557 13.6324 21.5109C12.5875 20.466 12.0006 19.0489 12.0006 17.5713C12.0006 16.0937 12.5875 14.6765 13.6324 13.6317C14.6772 12.5868 16.0944 11.9999 17.572 11.9999C19.0496 11.9999 20.4667 12.5868 21.5116 13.6317C22.5564 14.6765 23.1434 16.0937 23.1434 17.5713ZM18.0006 14.1427C18.0006 14.0291 17.9554 13.92 17.875 13.8397C17.7947 13.7593 17.6857 13.7141 17.572 13.7141C17.4583 13.7141 17.3493 13.7593 17.2689 13.8397C17.1886 13.92 17.1434 14.0291 17.1434 14.1427V17.1427H14.1434C14.0298 17.1427 13.9207 17.1879 13.8404 17.2682C13.76 17.3486 13.7148 17.4576 13.7148 17.5713C13.7148 17.685 13.76 17.794 13.8404 17.8743C13.9207 17.9547 14.0298 17.9999 14.1434 17.9999H17.1434V20.9999C17.1434 21.1135 17.1886 21.2225 17.2689 21.3029C17.3493 21.3833 17.4583 21.4284 17.572 21.4284C17.6857 21.4284 17.7947 21.3833 17.875 21.3029C17.9554 21.2225 18.0006 21.1135 18.0006 20.9999V17.9999H21.0006C21.1142 17.9999 21.2232 17.9547 21.3036 17.8743C21.384 17.794 21.4291 17.685 21.4291 17.5713C21.4291 17.4576 21.384 17.3486 21.3036 17.2682C21.2232 17.1879 21.1142 17.1427 21.0006 17.1427H18.0006V14.1427Z" fill="#26525B" fill-opacity="0.4"/>
</svg>
