<svg width="21" height="20" viewBox="0 0 21 20" fill="none" xmlns="http://www.w3.org/2000/svg">
<path d="M1.3816 14.0541C0.618958 14.0541 0 14.6595 0 15.4054C0 16.1514 0.618958 16.7568 1.3816 16.7568H2.21056V18.327C2.21056 19.2486 2.97873 20 3.92099 20H6.07905V0H3.92099C2.97873 0 2.21056 0.751351 2.21056 1.67297V2.97297H1.3816C0.618958 2.97297 0 3.57838 0 4.32432C0 5.07027 0.618958 5.67568 1.3816 5.67568H2.21056V8.64865H1.3816C0.618958 8.64865 0 9.25405 0 10C0 10.7459 0.618958 11.3514 1.3816 11.3514H2.21056V14.0541H1.3816ZM1.3816 4.59459C1.23239 4.59459 1.10528 4.47027 1.10528 4.32432C1.10528 4.17838 1.23239 4.05405 1.3816 4.05405H2.57807C2.6361 4.07568 2.69965 4.08649 2.7632 4.08649C2.82676 4.08649 2.89031 4.07297 2.94834 4.05405H3.86848C4.02046 4.05405 4.14481 4.17568 4.14481 4.32432C4.14481 4.47297 4.02046 4.59459 3.86848 4.59459H2.94834C2.89031 4.57297 2.82676 4.56216 2.7632 4.56216C2.69965 4.56216 2.6361 4.57568 2.57807 4.59459H1.3816ZM1.3816 10.2703C1.23239 10.2703 1.10528 10.1459 1.10528 10C1.10528 9.85405 1.23239 9.72973 1.3816 9.72973H2.57807C2.6361 9.75135 2.69965 9.76216 2.7632 9.76216C2.82676 9.76216 2.89031 9.74865 2.94834 9.72973H3.86848C4.02046 9.72973 4.14481 9.85135 4.14481 10C4.14481 10.1486 4.02046 10.2703 3.86848 10.2703H2.7632H1.3816ZM2.7632 15.1351H3.86848C4.02046 15.1351 4.14481 15.2568 4.14481 15.4054C4.14481 15.5541 4.02046 15.6757 3.86848 15.6757H2.7632H1.3816C1.23239 15.6757 1.10528 15.5514 1.10528 15.4054C1.10528 15.2595 1.23239 15.1351 1.3816 15.1351H2.7632Z" fill="#14908E"/>
<path d="M19.2891 0H6.63086V20H19.2891C20.2313 20 20.9995 19.2486 20.9995 18.327V1.67297C20.9995 0.751351 20.2313 0 19.2891 0ZM12.9862 5.67568C14.2076 5.67568 15.1968 6.64324 15.1968 7.83784C15.1968 9.03243 14.2076 10 12.9862 10C11.7649 10 10.7757 9.03243 10.7757 7.83784C10.7757 6.64324 11.7649 5.67568 12.9862 5.67568ZM17.131 15.0919C17.131 15.2649 16.9873 15.4054 16.8105 15.4054H9.16195C8.98511 15.4054 8.84142 15.2649 8.84142 15.0919V13.7486C8.84142 12.2757 10.0628 11.0811 11.5687 11.0811H14.401C15.9069 11.0811 17.1283 12.2757 17.1283 13.7486V15.0919H17.131Z" fill="#14908E"/>
</svg>
