<svg width="32" height="34" viewBox="0 0 32 34" fill="none" xmlns="http://www.w3.org/2000/svg">
<g filter="url(#filter0_d_3449_3811)">
<rect width="32" height="32" rx="16" fill="#14908E" shape-rendering="crispEdges"/>
<rect x="0.5" y="0.5" width="31" height="31" rx="15.5" stroke="#14908E" shape-rendering="crispEdges"/>
<path d="M10.668 20.0002C10.668 19.2929 10.9489 18.6146 11.449 18.1145C11.9491 17.6144 12.6274 17.3335 13.3346 17.3335H18.668C19.3752 17.3335 20.0535 17.6144 20.5536 18.1145C21.0537 18.6146 21.3346 19.2929 21.3346 20.0002C21.3346 20.3538 21.1942 20.6929 20.9441 20.943C20.6941 21.193 20.3549 21.3335 20.0013 21.3335H12.0013C11.6477 21.3335 11.3085 21.193 11.0585 20.943C10.8084 20.6929 10.668 20.3538 10.668 20.0002Z" stroke="#FFFDFC" stroke-width="1.5" stroke-linejoin="round"/>
<path d="M16 14.6667C17.1046 14.6667 18 13.7713 18 12.6667C18 11.5622 17.1046 10.6667 16 10.6667C14.8954 10.6667 14 11.5622 14 12.6667C14 13.7713 14.8954 14.6667 16 14.6667Z" stroke="#FFFDFC" stroke-width="1.5"/>
</g>
<defs>
<filter id="filter0_d_3449_3811" x="0" y="0" width="32" height="34" filterUnits="userSpaceOnUse" color-interpolation-filters="sRGB">
<feFlood flood-opacity="0" result="BackgroundImageFix"/>
<feColorMatrix in="SourceAlpha" type="matrix" values="0 0 0 0 0 0 0 0 0 0 0 0 0 0 0 0 0 0 127 0" result="hardAlpha"/>
<feOffset dy="2"/>
<feComposite in2="hardAlpha" operator="out"/>
<feColorMatrix type="matrix" values="0 0 0 0 0 0 0 0 0 0 0 0 0 0 0 0 0 0 0.12 0"/>
<feBlend mode="normal" in2="BackgroundImageFix" result="effect1_dropShadow_3449_3811"/>
<feBlend mode="normal" in="SourceGraphic" in2="effect1_dropShadow_3449_3811" result="shape"/>
</filter>
</defs>
</svg>
