<svg width="27" height="27" viewBox="0 0 27 27" fill="none" xmlns="http://www.w3.org/2000/svg">
<path d="M13.5 1.92857C7.10969 1.92857 1.92858 7.10968 1.92858 13.5C1.92858 15.5877 2.48015 17.5433 3.4454 19.2327C3.5092 19.3442 3.55009 19.4673 3.56565 19.5948C3.58122 19.7223 3.57115 19.8516 3.53605 19.9752L2.14844 24.8535L7.02869 23.4649C7.15225 23.4298 7.28158 23.4198 7.40908 23.4353C7.53659 23.4509 7.6597 23.4918 7.77119 23.5556C9.51582 24.5521 11.4908 25.0746 13.5 25.0714C19.8913 25.0714 25.0714 19.8903 25.0714 13.5C25.0714 7.10968 19.8913 1.92857 13.5 1.92857ZM1.12089e-05 13.5C1.12089e-05 6.04414 6.04415 0 13.5 0C20.9559 0 27 6.04414 27 13.5C27 20.9559 20.9559 27 13.5 27C11.2166 27 9.06236 26.432 7.17429 25.4292L1.84372 26.945C1.59598 27.0153 1.33398 27.0181 1.08479 26.9532C0.835589 26.8883 0.608233 26.7581 0.426199 26.5759C0.244165 26.3938 0.114053 26.1664 0.0493014 25.9172C-0.0154498 25.6679 -0.0124924 25.4059 0.0578683 25.1582L1.57372 19.8286C0.537638 17.8802 -0.00283826 15.7067 1.12089e-05 13.5ZM7.71429 10.6071C7.71429 10.3514 7.81589 10.1061 7.99673 9.92529C8.17757 9.74445 8.42284 9.64286 8.67858 9.64286H18.3214C18.5772 9.64286 18.8224 9.74445 19.0033 9.92529C19.1841 10.1061 19.2857 10.3514 19.2857 10.6071C19.2857 10.8629 19.1841 11.1082 19.0033 11.289C18.8224 11.4698 18.5772 11.5714 18.3214 11.5714H8.67858C8.42284 11.5714 8.17757 11.4698 7.99673 11.289C7.81589 11.1082 7.71429 10.8629 7.71429 10.6071ZM8.67858 15.4286C8.42284 15.4286 8.17757 15.5302 7.99673 15.711C7.81589 15.8918 7.71429 16.1371 7.71429 16.3929C7.71429 16.6486 7.81589 16.8939 7.99673 17.0747C8.17757 17.2556 8.42284 17.3571 8.67858 17.3571H14.4643C14.72 17.3571 14.9653 17.2556 15.1461 17.0747C15.327 16.8939 15.4286 16.6486 15.4286 16.3929C15.4286 16.1371 15.327 15.8918 15.1461 15.711C14.9653 15.5302 14.72 15.4286 14.4643 15.4286H8.67858Z" fill="#14908E"/>
</svg>
