<svg width="219" height="219" viewBox="0 0 219 219" fill="none" xmlns="http://www.w3.org/2000/svg">
<g filter="url(#filter0_iiii_1199_3415)">
<circle cx="109.438" cy="109.438" r="103" fill="#EBFAFB"/>
</g>
<g filter="url(#filter1_dddd_1199_3415)">
<circle cx="109.438" cy="109.438" r="77.25" fill="#F27B50"/>
</g>
<path d="M84.7855 113.822C83.2708 113.822 81.8842 113.544 80.6255 112.989C79.3668 112.413 78.3002 111.635 77.4255 110.653C76.5508 109.672 75.9215 108.573 75.5375 107.357L78.2575 106.237C78.8335 107.773 79.6868 108.957 80.8175 109.789C81.9695 110.6 83.3135 111.005 84.8495 111.005C85.7882 111.005 86.6095 110.856 87.3135 110.557C88.0175 110.259 88.5615 109.843 88.9455 109.309C89.3508 108.755 89.5535 108.115 89.5535 107.389C89.5535 106.387 89.2655 105.597 88.6895 105.021C88.1348 104.424 87.3135 103.976 86.2255 103.677L81.8415 102.333C80.1135 101.8 78.7908 100.957 77.8735 99.8055C76.9562 98.6535 76.4975 97.3308 76.4975 95.8375C76.4975 94.5362 76.8068 93.3948 77.4255 92.4135C78.0655 91.4108 78.9402 90.6322 80.0495 90.0775C81.1802 89.5015 82.4602 89.2135 83.8895 89.2135C85.3188 89.2135 86.6095 89.4695 87.7615 89.9815C88.9348 90.4935 89.9268 91.1868 90.7375 92.0615C91.5482 92.9148 92.1455 93.8962 92.5295 95.0055L89.8415 96.1255C89.3295 94.7815 88.5615 93.7682 87.5375 93.0855C86.5135 92.3815 85.3082 92.0295 83.9215 92.0295C83.0682 92.0295 82.3108 92.1788 81.6495 92.4775C81.0095 92.7548 80.5082 93.1708 80.1455 93.7255C79.8042 94.2588 79.6335 94.8988 79.6335 95.6455C79.6335 96.5202 79.9108 97.2988 80.4655 97.9815C81.0202 98.6642 81.8628 99.1868 82.9935 99.5495L86.9935 100.733C88.8708 101.309 90.2895 102.131 91.2495 103.197C92.2095 104.264 92.6895 105.587 92.6895 107.165C92.6895 108.467 92.3482 109.619 91.6655 110.621C91.0042 111.624 90.0762 112.413 88.8815 112.989C87.7082 113.544 86.3428 113.822 84.7855 113.822ZM108.673 113.822C106.988 113.822 105.409 113.523 103.937 112.925C102.465 112.307 101.174 111.443 100.065 110.333C98.977 109.224 98.1237 107.923 97.505 106.429C96.8863 104.915 96.577 103.272 96.577 101.501C96.577 99.7095 96.8863 98.0668 97.505 96.5735C98.1237 95.0802 98.977 93.7788 100.065 92.6695C101.174 91.5602 102.454 90.7068 103.905 90.1095C105.377 89.5122 106.966 89.2135 108.673 89.2135C110.38 89.2135 111.958 89.5228 113.409 90.1415C114.881 90.7388 116.161 91.5922 117.249 92.7015C118.358 93.7895 119.222 95.0802 119.841 96.5735C120.481 98.0668 120.801 99.7095 120.801 101.501C120.801 103.272 120.481 104.915 119.841 106.429C119.222 107.923 118.358 109.224 117.249 110.333C116.161 111.443 114.881 112.307 113.409 112.925C111.958 113.523 110.38 113.822 108.673 113.822ZM108.673 110.909C109.996 110.909 111.201 110.675 112.289 110.205C113.377 109.715 114.316 109.043 115.105 108.189C115.916 107.315 116.534 106.312 116.961 105.181C117.409 104.029 117.633 102.803 117.633 101.501C117.633 100.2 117.409 98.9842 116.961 97.8535C116.534 96.7228 115.916 95.7308 115.105 94.8775C114.316 94.0028 113.377 93.3308 112.289 92.8615C111.201 92.3708 109.996 92.1255 108.673 92.1255C107.372 92.1255 106.177 92.3708 105.089 92.8615C104.001 93.3308 103.052 94.0028 102.241 94.8775C101.452 95.7308 100.833 96.7228 100.385 97.8535C99.937 98.9842 99.713 100.2 99.713 101.501C99.713 102.803 99.937 104.029 100.385 105.181C100.833 106.312 101.452 107.315 102.241 108.189C103.052 109.043 104.001 109.715 105.089 110.205C106.177 110.675 107.372 110.909 108.673 110.909ZM133.567 113.822C132.052 113.822 130.665 113.544 129.407 112.989C128.148 112.413 127.081 111.635 126.207 110.653C125.332 109.672 124.703 108.573 124.319 107.357L127.039 106.237C127.615 107.773 128.468 108.957 129.599 109.789C130.751 110.6 132.095 111.005 133.631 111.005C134.569 111.005 135.391 110.856 136.095 110.557C136.799 110.259 137.343 109.843 137.727 109.309C138.132 108.755 138.335 108.115 138.335 107.389C138.335 106.387 138.047 105.597 137.471 105.021C136.916 104.424 136.095 103.976 135.007 103.677L130.623 102.333C128.895 101.8 127.572 100.957 126.655 99.8055C125.737 98.6535 125.279 97.3308 125.279 95.8375C125.279 94.5362 125.588 93.3948 126.207 92.4135C126.847 91.4108 127.721 90.6322 128.831 90.0775C129.961 89.5015 131.241 89.2135 132.671 89.2135C134.1 89.2135 135.391 89.4695 136.543 89.9815C137.716 90.4935 138.708 91.1868 139.519 92.0615C140.329 92.9148 140.927 93.8962 141.311 95.0055L138.623 96.1255C138.111 94.7815 137.343 93.7682 136.319 93.0855C135.295 92.3815 134.089 92.0295 132.703 92.0295C131.849 92.0295 131.092 92.1788 130.431 92.4775C129.791 92.7548 129.289 93.1708 128.927 93.7255C128.585 94.2588 128.415 94.8988 128.415 95.6455C128.415 96.5202 128.692 97.2988 129.247 97.9815C129.801 98.6642 130.644 99.1868 131.775 99.5495L135.775 100.733C137.652 101.309 139.071 102.131 140.031 103.197C140.991 104.264 141.471 105.587 141.471 107.165C141.471 108.467 141.129 109.619 140.447 110.621C139.785 111.624 138.857 112.413 137.663 112.989C136.489 113.544 135.124 113.822 133.567 113.822Z" fill="#FFFDFC"/>
<path d="M80.4447 132.438V123.497H83.5167C84.1007 123.497 84.6127 123.613 85.0527 123.845C85.4927 124.069 85.8327 124.389 86.0727 124.805C86.3207 125.213 86.4447 125.689 86.4447 126.233C86.4447 126.777 86.3207 127.253 86.0727 127.661C85.8327 128.069 85.4927 128.389 85.0527 128.621C84.6207 128.845 84.1087 128.957 83.5167 128.957H81.4047V132.438H80.4447ZM81.4047 128.057H83.5647C83.9487 128.057 84.2847 127.985 84.5727 127.841C84.8607 127.689 85.0847 127.477 85.2447 127.205C85.4047 126.925 85.4847 126.597 85.4847 126.221C85.4847 125.845 85.4047 125.521 85.2447 125.249C85.0847 124.977 84.8607 124.769 84.5727 124.625C84.2847 124.473 83.9487 124.397 83.5647 124.397H81.4047V128.057ZM88.0236 132.438V126.005H88.9236V127.061L88.8036 126.905C88.9556 126.601 89.1836 126.361 89.4876 126.185C89.7996 126.009 90.1756 125.921 90.6156 125.921H91.0236V126.821H90.4596C89.9956 126.821 89.6236 126.965 89.3436 127.253C89.0636 127.541 88.9236 127.949 88.9236 128.477V132.438H88.0236ZM95.0063 132.582C94.4063 132.582 93.8623 132.438 93.3743 132.149C92.8943 131.853 92.5143 131.449 92.2343 130.938C91.9543 130.425 91.8143 129.845 91.8143 129.197C91.8143 128.549 91.9503 127.977 92.2223 127.481C92.4943 126.977 92.8623 126.581 93.3263 126.293C93.7983 126.005 94.3263 125.861 94.9103 125.861C95.3743 125.861 95.7863 125.949 96.1463 126.125C96.5143 126.293 96.8263 126.525 97.0823 126.821C97.3383 127.109 97.5343 127.437 97.6703 127.805C97.8063 128.165 97.8743 128.537 97.8743 128.921C97.8743 129.001 97.8703 129.093 97.8623 129.197C97.8543 129.293 97.8423 129.393 97.8263 129.497H92.3903V128.657H97.3103L96.8783 129.017C96.9503 128.577 96.8983 128.185 96.7223 127.841C96.5543 127.489 96.3103 127.213 95.9903 127.013C95.6703 126.805 95.3103 126.701 94.9103 126.701C94.5103 126.701 94.1383 126.805 93.7943 127.013C93.4583 127.221 93.1943 127.513 93.0023 127.889C92.8103 128.257 92.7343 128.697 92.7743 129.209C92.7343 129.721 92.8143 130.169 93.0143 130.553C93.2223 130.929 93.5023 131.221 93.8543 131.429C94.2143 131.637 94.5983 131.741 95.0063 131.741C95.4783 131.741 95.8743 131.629 96.1943 131.405C96.5143 131.181 96.7743 130.901 96.9743 130.565L97.7423 130.973C97.6143 131.261 97.4183 131.529 97.1543 131.777C96.8903 132.017 96.5743 132.213 96.2063 132.365C95.8463 132.51 95.4463 132.582 95.0063 132.582ZM101.693 132.582C101.077 132.582 100.537 132.425 100.073 132.113C99.6091 131.802 99.2731 131.377 99.0651 130.841L99.8211 130.481C100.005 130.873 100.261 131.185 100.589 131.417C100.925 131.649 101.293 131.765 101.693 131.765C102.077 131.765 102.401 131.673 102.665 131.489C102.929 131.297 103.061 131.049 103.061 130.745C103.061 130.521 102.997 130.345 102.869 130.217C102.741 130.081 102.593 129.977 102.425 129.905C102.257 129.833 102.109 129.781 101.981 129.749L101.057 129.485C100.465 129.317 100.037 129.081 99.7731 128.777C99.5091 128.473 99.3771 128.121 99.3771 127.721C99.3771 127.345 99.4731 127.017 99.6651 126.737C99.8571 126.457 100.117 126.241 100.445 126.089C100.773 125.937 101.137 125.861 101.537 125.861C102.081 125.861 102.573 126.005 103.013 126.293C103.461 126.573 103.777 126.965 103.961 127.469L103.193 127.829C103.033 127.469 102.801 127.189 102.497 126.989C102.201 126.781 101.869 126.677 101.501 126.677C101.141 126.677 100.853 126.769 100.637 126.953C100.421 127.137 100.313 127.369 100.313 127.649C100.313 127.865 100.369 128.037 100.481 128.165C100.593 128.293 100.721 128.389 100.865 128.453C101.017 128.517 101.149 128.565 101.261 128.597L102.329 128.91C102.849 129.061 103.253 129.297 103.541 129.617C103.837 129.937 103.985 130.313 103.985 130.745C103.985 131.097 103.885 131.413 103.685 131.693C103.493 131.973 103.225 132.193 102.881 132.353C102.537 132.505 102.141 132.582 101.693 132.582ZM107.799 132.582C107.183 132.582 106.643 132.425 106.179 132.113C105.715 131.802 105.379 131.377 105.171 130.841L105.927 130.481C106.111 130.873 106.367 131.185 106.695 131.417C107.031 131.649 107.399 131.765 107.799 131.765C108.183 131.765 108.507 131.673 108.771 131.489C109.035 131.297 109.167 131.049 109.167 130.745C109.167 130.521 109.103 130.345 108.975 130.217C108.847 130.081 108.699 129.977 108.531 129.905C108.363 129.833 108.215 129.781 108.087 129.749L107.163 129.485C106.571 129.317 106.143 129.081 105.879 128.777C105.615 128.473 105.483 128.121 105.483 127.721C105.483 127.345 105.579 127.017 105.771 126.737C105.963 126.457 106.223 126.241 106.551 126.089C106.879 125.937 107.243 125.861 107.643 125.861C108.187 125.861 108.679 126.005 109.119 126.293C109.567 126.573 109.883 126.965 110.067 127.469L109.299 127.829C109.139 127.469 108.907 127.189 108.603 126.989C108.307 126.781 107.975 126.677 107.607 126.677C107.247 126.677 106.959 126.769 106.743 126.953C106.527 127.137 106.419 127.369 106.419 127.649C106.419 127.865 106.475 128.037 106.587 128.165C106.699 128.293 106.827 128.389 106.971 128.453C107.123 128.517 107.255 128.565 107.367 128.597L108.435 128.91C108.955 129.061 109.359 129.297 109.647 129.617C109.943 129.937 110.091 130.313 110.091 130.745C110.091 131.097 109.991 131.413 109.791 131.693C109.599 131.973 109.331 132.193 108.987 132.353C108.643 132.505 108.247 132.582 107.799 132.582ZM113.711 132.438V123.353H114.611V127.253L114.407 127.205C114.567 126.789 114.827 126.461 115.187 126.221C115.555 125.981 115.979 125.861 116.459 125.861C116.915 125.861 117.323 125.965 117.683 126.173C118.051 126.381 118.339 126.669 118.547 127.037C118.763 127.397 118.871 127.805 118.871 128.261V132.438H117.971V128.609C117.971 128.217 117.899 127.885 117.755 127.613C117.611 127.341 117.411 127.133 117.155 126.989C116.907 126.837 116.623 126.761 116.303 126.761C115.983 126.761 115.695 126.837 115.439 126.989C115.183 127.133 114.979 127.345 114.827 127.625C114.683 127.897 114.611 128.225 114.611 128.609V132.438H113.711ZM123.518 132.582C122.918 132.582 122.374 132.438 121.886 132.149C121.406 131.853 121.026 131.449 120.746 130.938C120.466 130.425 120.326 129.845 120.326 129.197C120.326 128.549 120.462 127.977 120.734 127.481C121.006 126.977 121.374 126.581 121.838 126.293C122.31 126.005 122.838 125.861 123.422 125.861C123.886 125.861 124.298 125.949 124.658 126.125C125.026 126.293 125.338 126.525 125.594 126.821C125.85 127.109 126.046 127.437 126.182 127.805C126.318 128.165 126.386 128.537 126.386 128.921C126.386 129.001 126.382 129.093 126.374 129.197C126.366 129.293 126.354 129.393 126.338 129.497H120.902V128.657H125.822L125.39 129.017C125.462 128.577 125.41 128.185 125.234 127.841C125.066 127.489 124.822 127.213 124.502 127.013C124.182 126.805 123.822 126.701 123.422 126.701C123.022 126.701 122.65 126.805 122.306 127.013C121.97 127.221 121.706 127.513 121.514 127.889C121.322 128.257 121.246 128.697 121.286 129.209C121.246 129.721 121.326 130.169 121.526 130.553C121.734 130.929 122.014 131.221 122.366 131.429C122.726 131.637 123.11 131.741 123.518 131.741C123.99 131.741 124.386 131.629 124.706 131.405C125.026 131.181 125.286 130.901 125.486 130.565L126.254 130.973C126.126 131.261 125.93 131.529 125.666 131.777C125.402 132.017 125.086 132.213 124.718 132.365C124.358 132.51 123.958 132.582 123.518 132.582ZM127.973 132.438V126.005H128.873V127.061L128.753 126.905C128.905 126.601 129.133 126.361 129.437 126.185C129.749 126.009 130.125 125.921 130.565 125.921H130.973V126.821H130.409C129.945 126.821 129.573 126.965 129.293 127.253C129.013 127.541 128.873 127.949 128.873 128.477V132.438H127.973ZM134.956 132.582C134.356 132.582 133.812 132.438 133.324 132.149C132.844 131.853 132.464 131.449 132.184 130.938C131.904 130.425 131.764 129.845 131.764 129.197C131.764 128.549 131.9 127.977 132.172 127.481C132.444 126.977 132.812 126.581 133.276 126.293C133.748 126.005 134.276 125.861 134.86 125.861C135.324 125.861 135.736 125.949 136.096 126.125C136.464 126.293 136.776 126.525 137.032 126.821C137.288 127.109 137.484 127.437 137.62 127.805C137.756 128.165 137.824 128.537 137.824 128.921C137.824 129.001 137.82 129.093 137.812 129.197C137.804 129.293 137.792 129.393 137.776 129.497H132.34V128.657H137.26L136.828 129.017C136.9 128.577 136.848 128.185 136.672 127.841C136.504 127.489 136.26 127.213 135.94 127.013C135.62 126.805 135.26 126.701 134.86 126.701C134.46 126.701 134.088 126.805 133.744 127.013C133.408 127.221 133.144 127.513 132.952 127.889C132.76 128.257 132.684 128.697 132.724 129.209C132.684 129.721 132.764 130.169 132.964 130.553C133.172 130.929 133.452 131.221 133.804 131.429C134.164 131.637 134.548 131.741 134.956 131.741C135.428 131.741 135.824 131.629 136.144 131.405C136.464 131.181 136.724 130.901 136.924 130.565L137.692 130.973C137.564 131.261 137.368 131.529 137.104 131.777C136.84 132.017 136.524 132.213 136.156 132.365C135.796 132.51 135.396 132.582 134.956 132.582Z" fill="#FFFDFC"/>
<defs>
<filter id="filter0_iiii_1199_3415" x="-4.29167" y="-4.29167" width="227.458" height="227.458" filterUnits="userSpaceOnUse" color-interpolation-filters="sRGB">
<feFlood flood-opacity="0" result="BackgroundImageFix"/>
<feBlend mode="normal" in="SourceGraphic" in2="BackgroundImageFix" result="shape"/>
<feColorMatrix in="SourceAlpha" type="matrix" values="0 0 0 0 0 0 0 0 0 0 0 0 0 0 0 0 0 0 127 0" result="hardAlpha"/>
<feOffset dx="-10.7292" dy="-10.7292"/>
<feGaussianBlur stdDeviation="10.7292"/>
<feComposite in2="hardAlpha" operator="arithmetic" k2="-1" k3="1"/>
<feColorMatrix type="matrix" values="0 0 0 0 1 0 0 0 0 1 0 0 0 0 1 0 0 0 1 0"/>
<feBlend mode="normal" in2="shape" result="effect1_innerShadow_1199_3415"/>
<feColorMatrix in="SourceAlpha" type="matrix" values="0 0 0 0 0 0 0 0 0 0 0 0 0 0 0 0 0 0 127 0" result="hardAlpha"/>
<feOffset dx="10.7292" dy="10.7292"/>
<feGaussianBlur stdDeviation="10.7292"/>
<feComposite in2="hardAlpha" operator="arithmetic" k2="-1" k3="1"/>
<feColorMatrix type="matrix" values="0 0 0 0 0.666667 0 0 0 0 0.666667 0 0 0 0 0.8 0 0 0 0.5 0"/>
<feBlend mode="normal" in2="effect1_innerShadow_1199_3415" result="effect2_innerShadow_1199_3415"/>
<feColorMatrix in="SourceAlpha" type="matrix" values="0 0 0 0 0 0 0 0 0 0 0 0 0 0 0 0 0 0 127 0" result="hardAlpha"/>
<feOffset dx="5.36458" dy="5.36458"/>
<feGaussianBlur stdDeviation="5.36458"/>
<feComposite in2="hardAlpha" operator="arithmetic" k2="-1" k3="1"/>
<feColorMatrix type="matrix" values="0 0 0 0 0.666667 0 0 0 0 0.666667 0 0 0 0 0.8 0 0 0 0.25 0"/>
<feBlend mode="normal" in2="effect2_innerShadow_1199_3415" result="effect3_innerShadow_1199_3415"/>
<feColorMatrix in="SourceAlpha" type="matrix" values="0 0 0 0 0 0 0 0 0 0 0 0 0 0 0 0 0 0 127 0" result="hardAlpha"/>
<feOffset dx="-5.36458" dy="-5.36458"/>
<feGaussianBlur stdDeviation="5.36458"/>
<feComposite in2="hardAlpha" operator="arithmetic" k2="-1" k3="1"/>
<feColorMatrix type="matrix" values="0 0 0 0 1 0 0 0 0 1 0 0 0 0 1 0 0 0 0.5 0"/>
<feBlend mode="normal" in2="effect3_innerShadow_1199_3415" result="effect4_innerShadow_1199_3415"/>
</filter>
<filter id="filter1_dddd_1199_3415" x="-3.8147e-06" y="-3.8147e-06" width="218.875" height="218.875" filterUnits="userSpaceOnUse" color-interpolation-filters="sRGB">
<feFlood flood-opacity="0" result="BackgroundImageFix"/>
<feColorMatrix in="SourceAlpha" type="matrix" values="0 0 0 0 0 0 0 0 0 0 0 0 0 0 0 0 0 0 127 0" result="hardAlpha"/>
<feOffset dx="-10.7292" dy="-10.7292"/>
<feGaussianBlur stdDeviation="10.7292"/>
<feColorMatrix type="matrix" values="0 0 0 0 1 0 0 0 0 1 0 0 0 0 1 0 0 0 1 0"/>
<feBlend mode="normal" in2="BackgroundImageFix" result="effect1_dropShadow_1199_3415"/>
<feColorMatrix in="SourceAlpha" type="matrix" values="0 0 0 0 0 0 0 0 0 0 0 0 0 0 0 0 0 0 127 0" result="hardAlpha"/>
<feOffset dx="10.7292" dy="10.7292"/>
<feGaussianBlur stdDeviation="10.7292"/>
<feColorMatrix type="matrix" values="0 0 0 0 0.666667 0 0 0 0 0.666667 0 0 0 0 0.8 0 0 0 0.5 0"/>
<feBlend mode="normal" in2="effect1_dropShadow_1199_3415" result="effect2_dropShadow_1199_3415"/>
<feColorMatrix in="SourceAlpha" type="matrix" values="0 0 0 0 0 0 0 0 0 0 0 0 0 0 0 0 0 0 127 0" result="hardAlpha"/>
<feOffset dx="5.36458" dy="5.36458"/>
<feGaussianBlur stdDeviation="5.36458"/>
<feColorMatrix type="matrix" values="0 0 0 0 0.666667 0 0 0 0 0.666667 0 0 0 0 0.8 0 0 0 0.25 0"/>
<feBlend mode="normal" in2="effect2_dropShadow_1199_3415" result="effect3_dropShadow_1199_3415"/>
<feColorMatrix in="SourceAlpha" type="matrix" values="0 0 0 0 0 0 0 0 0 0 0 0 0 0 0 0 0 0 127 0" result="hardAlpha"/>
<feOffset dx="-5.36458" dy="-5.36458"/>
<feGaussianBlur stdDeviation="5.36458"/>
<feColorMatrix type="matrix" values="0 0 0 0 1 0 0 0 0 1 0 0 0 0 1 0 0 0 0.5 0"/>
<feBlend mode="normal" in2="effect3_dropShadow_1199_3415" result="effect4_dropShadow_1199_3415"/>
<feBlend mode="normal" in="SourceGraphic" in2="effect4_dropShadow_1199_3415" result="shape"/>
</filter>
</defs>
</svg>
