<svg width="32" height="34" viewBox="0 0 32 34" fill="none" xmlns="http://www.w3.org/2000/svg">
<g filter="url(#filter0_d_3449_3792)">
<rect width="32" height="32" rx="16" fill="#14908E" shape-rendering="crispEdges"/>
<rect x="0.5" y="0.5" width="31" height="31" rx="15.5" stroke="#14908E" shape-rendering="crispEdges"/>
<g clip-path="url(#clip0_3449_3792)">
<path d="M16.0008 10.4001C15.5765 10.4001 15.1695 10.5687 14.8695 10.8687C14.5694 11.1688 14.4008 11.5758 14.4008 12.0001C14.4008 12.4244 14.5694 12.8314 14.8695 13.1315C15.1695 13.4315 15.5765 13.6001 16.0008 13.6001C16.4252 13.6001 16.8321 13.4315 17.1322 13.1315C17.4323 12.8314 17.6008 12.4244 17.6008 12.0001C17.6008 11.5758 17.4323 11.1688 17.1322 10.8687C16.8321 10.5687 16.4252 10.4001 16.0008 10.4001ZM13.6008 12.0001C13.6008 11.3636 13.8537 10.7531 14.3038 10.303C14.7539 9.85295 15.3643 9.6001 16.0008 9.6001C16.6373 9.6001 17.2478 9.85295 17.6979 10.303C18.148 10.7531 18.4008 11.3636 18.4008 12.0001C18.4008 12.6366 18.148 13.2471 17.6979 13.6972C17.2478 14.1472 16.6373 14.4001 16.0008 14.4001C15.3643 14.4001 14.7539 14.1472 14.3038 13.6972C13.8537 13.2471 13.6008 12.6366 13.6008 12.0001ZM12.0432 15.9969C12.016 16.127 12.0024 16.2614 12.0024 16.4001V16.8361L9.89763 17.4001C9.79516 17.4275 9.70776 17.4944 9.65465 17.5863C9.60154 17.6781 9.58707 17.7872 9.61443 17.8897L10.132 19.8217C10.2839 20.3875 10.6375 20.8782 11.1261 21.2014C11.6147 21.5246 12.2047 21.6578 12.7848 21.5761C12.9688 21.8241 13.1808 22.0513 13.416 22.2505L13.2792 22.2905C12.8733 22.3994 12.4499 22.4272 12.0332 22.3725C11.6164 22.3177 11.2146 22.1814 10.8506 21.9713C10.4866 21.7612 10.1675 21.4815 9.91162 21.148C9.65573 20.8146 9.46802 20.4341 9.35923 20.0281L8.84163 18.0961C8.80086 17.9439 8.79048 17.7851 8.81107 17.6289C8.83166 17.4726 8.88283 17.322 8.96165 17.1855C9.04047 17.049 9.1454 16.9294 9.27044 16.8335C9.39549 16.7376 9.5382 16.6673 9.69043 16.6265L12.0432 15.9969ZM20.0024 16.8361V16.4001C20.0019 16.2614 19.9886 16.127 19.9624 15.9969L22.3144 16.6273C22.6217 16.7098 22.8837 16.9109 23.0427 17.1865C23.2017 17.4621 23.2448 17.7896 23.1624 18.0969L22.6448 20.0289C22.5329 20.4464 22.3376 20.8368 22.0707 21.1767C21.8037 21.5167 21.4707 21.799 21.0916 22.0067C20.7126 22.2143 20.2954 22.3431 19.8653 22.3851C19.4351 22.4272 19.0009 22.3817 18.5888 22.2513C18.8251 22.0508 19.0355 21.826 19.22 21.5769C19.8001 21.6584 20.39 21.5249 20.8785 21.2016C21.367 20.8783 21.7203 20.3875 21.872 19.8217L22.3904 17.8897C22.4178 17.7872 22.4033 17.6781 22.3502 17.5863C22.2971 17.4944 22.2097 17.4275 22.1072 17.4001L20.0024 16.8361ZM20.0008 13.2001C20.0008 12.8818 20.1273 12.5766 20.3523 12.3516C20.5773 12.1265 20.8826 12.0001 21.2008 12.0001C21.5191 12.0001 21.8243 12.1265 22.0494 12.3516C22.2744 12.5766 22.4008 12.8818 22.4008 13.2001C22.4008 13.5184 22.2744 13.8236 22.0494 14.0486C21.8243 14.2737 21.5191 14.4001 21.2008 14.4001C20.8826 14.4001 20.5773 14.2737 20.3523 14.0486C20.1273 13.8236 20.0008 13.5184 20.0008 13.2001ZM21.2008 11.2001C20.6704 11.2001 20.1617 11.4108 19.7866 11.7859C19.4115 12.161 19.2008 12.6697 19.2008 13.2001C19.2008 13.7305 19.4115 14.2392 19.7866 14.6143C20.1617 14.9894 20.6704 15.2001 21.2008 15.2001C21.7313 15.2001 22.24 14.9894 22.615 14.6143C22.9901 14.2392 23.2008 13.7305 23.2008 13.2001C23.2008 12.6697 22.9901 12.161 22.615 11.7859C22.24 11.4108 21.7313 11.2001 21.2008 11.2001ZM10.8008 12.0001C10.4826 12.0001 10.1773 12.1265 9.9523 12.3516C9.72726 12.5766 9.60083 12.8818 9.60083 13.2001C9.60083 13.5184 9.72726 13.8236 9.9523 14.0486C10.1773 14.2737 10.4826 14.4001 10.8008 14.4001C11.1191 14.4001 11.4243 14.2737 11.6494 14.0486C11.8744 13.8236 12.0008 13.5184 12.0008 13.2001C12.0008 12.8818 11.8744 12.5766 11.6494 12.3516C11.4243 12.1265 11.1191 12.0001 10.8008 12.0001ZM8.80083 13.2001C8.80083 12.6697 9.01154 12.161 9.38662 11.7859C9.76169 11.4108 10.2704 11.2001 10.8008 11.2001C11.3313 11.2001 11.84 11.4108 12.215 11.7859C12.5901 12.161 12.8008 12.6697 12.8008 13.2001C12.8008 13.7305 12.5901 14.2392 12.215 14.6143C11.84 14.9894 11.3313 15.2001 10.8008 15.2001C10.2704 15.2001 9.76169 14.9894 9.38662 14.6143C9.01154 14.2392 8.80083 13.7305 8.80083 13.2001ZM14.0008 15.2001C13.6826 15.2001 13.3773 15.3265 13.1523 15.5516C12.9273 15.7766 12.8008 16.0818 12.8008 16.4001V19.2001C12.8008 20.0488 13.138 20.8627 13.7381 21.4628C14.3382 22.063 15.1521 22.4001 16.0008 22.4001C16.8495 22.4001 17.6635 22.063 18.2636 21.4628C18.8637 20.8627 19.2008 20.0488 19.2008 19.2001V16.4001C19.2008 16.0818 19.0744 15.7766 18.8494 15.5516C18.6243 15.3265 18.3191 15.2001 18.0008 15.2001H14.0008ZM13.6008 16.4001C13.6008 16.294 13.643 16.1923 13.718 16.1173C13.793 16.0422 13.8947 16.0001 14.0008 16.0001H18.0008C18.1069 16.0001 18.2087 16.0422 18.2837 16.1173C18.3587 16.1923 18.4008 16.294 18.4008 16.4001V19.2001C18.4008 19.8366 18.148 20.4471 17.6979 20.8972C17.2478 21.3472 16.6373 21.6001 16.0008 21.6001C15.3643 21.6001 14.7539 21.3472 14.3038 20.8972C13.8537 20.4471 13.6008 19.8366 13.6008 19.2001V16.4001Z" fill="#FFFDFC" stroke="#FFFDFC" stroke-width="0.3"/>
</g>
</g>
<defs>
<filter id="filter0_d_3449_3792" x="0" y="0" width="32" height="34" filterUnits="userSpaceOnUse" color-interpolation-filters="sRGB">
<feFlood flood-opacity="0" result="BackgroundImageFix"/>
<feColorMatrix in="SourceAlpha" type="matrix" values="0 0 0 0 0 0 0 0 0 0 0 0 0 0 0 0 0 0 127 0" result="hardAlpha"/>
<feOffset dy="2"/>
<feComposite in2="hardAlpha" operator="out"/>
<feColorMatrix type="matrix" values="0 0 0 0 0 0 0 0 0 0 0 0 0 0 0 0 0 0 0.12 0"/>
<feBlend mode="normal" in2="BackgroundImageFix" result="effect1_dropShadow_3449_3792"/>
<feBlend mode="normal" in="SourceGraphic" in2="effect1_dropShadow_3449_3792" result="shape"/>
</filter>
<clipPath id="clip0_3449_3792">
<rect width="16" height="16" fill="white" transform="translate(8 8)"/>
</clipPath>
</defs>
</svg>
