<svg width="32" height="34" viewBox="0 0 32 34" fill="none" xmlns="http://www.w3.org/2000/svg">
<g filter="url(#filter0_d_3449_3805)">
<rect width="32" height="32" rx="16" fill="#14908E" shape-rendering="crispEdges"/>
<rect x="0.5" y="0.5" width="31" height="31" rx="15.5" stroke="#14908E" shape-rendering="crispEdges"/>
<path d="M13.5 10.5H12C11.8674 10.5 11.7402 10.5527 11.6464 10.6464C11.5527 10.7402 11.5 10.8674 11.5 11V22C11.5 22.1326 11.5527 22.2598 11.6464 22.3536C11.7402 22.4473 11.8674 22.5 12 22.5H20C20.1326 22.5 20.2598 22.4473 20.3536 22.3536C20.4473 22.2598 20.5 22.1326 20.5 22V11C20.5 10.8674 20.4473 10.7402 20.3536 10.6464C20.2598 10.5527 20.1326 10.5 20 10.5H18.5M16 13.5V18M17.875 11.5L18.297 10.15C18.3206 10.0751 18.3261 9.99572 18.3133 9.91827C18.3005 9.84082 18.2696 9.76748 18.2231 9.70418C18.1767 9.64089 18.116 9.58942 18.0459 9.55395C17.9759 9.51848 17.8985 9.5 17.82 9.5H14.18C14.1015 9.5 14.0241 9.51848 13.954 9.55395C13.884 9.58942 13.8233 9.64089 13.7769 9.70418C13.7304 9.76748 13.6995 9.84082 13.6867 9.91827C13.6739 9.99572 13.6794 10.0751 13.703 10.15L14.125 11.5H17.875ZM16 19.75H16.005V19.755H16V19.75ZM16.25 19.75C16.25 19.8163 16.2237 19.8799 16.1768 19.9268C16.1299 19.9737 16.0663 20 16 20C15.9337 20 15.8701 19.9737 15.8232 19.9268C15.7763 19.8799 15.75 19.8163 15.75 19.75C15.75 19.6837 15.7763 19.6201 15.8232 19.5732C15.8701 19.5263 15.9337 19.5 16 19.5C16.0663 19.5 16.1299 19.5263 16.1768 19.5732C16.2237 19.6201 16.25 19.6837 16.25 19.75Z" stroke="#FFFDFC" stroke-width="1.125"/>
</g>
<defs>
<filter id="filter0_d_3449_3805" x="0" y="0" width="32" height="34" filterUnits="userSpaceOnUse" color-interpolation-filters="sRGB">
<feFlood flood-opacity="0" result="BackgroundImageFix"/>
<feColorMatrix in="SourceAlpha" type="matrix" values="0 0 0 0 0 0 0 0 0 0 0 0 0 0 0 0 0 0 127 0" result="hardAlpha"/>
<feOffset dy="2"/>
<feComposite in2="hardAlpha" operator="out"/>
<feColorMatrix type="matrix" values="0 0 0 0 0 0 0 0 0 0 0 0 0 0 0 0 0 0 0.12 0"/>
<feBlend mode="normal" in2="BackgroundImageFix" result="effect1_dropShadow_3449_3805"/>
<feBlend mode="normal" in="SourceGraphic" in2="effect1_dropShadow_3449_3805" result="shape"/>
</filter>
</defs>
</svg>
